<svg xmlns="http://www.w3.org/2000/svg" fill-rule="evenodd" stroke-linejoin="round" stroke-miterlimit="1.414" clip-rule="evenodd" viewBox="0 0 411 342" id="cpanel"><path fill="none" d="M.453.536h409.615v341.37H.453z"></path><path fill="#cce6ff" fill-opacity=".259" d="M358.788 59.817c0-8.279-6.721-15-15-15H55.241c-8.279 0-15 6.721-15 15v180.679c0 8.279 6.721 15 15 15h288.547c8.279 0 15-6.721 15-15V59.817Z"></path><path fill="url(#a)" d="M349.252 47.951c0-8.279-6.721-15-15-15H45.705c-8.279 0-15 6.721-15 15v180.68c0 8.278 6.721 15 15 15h288.547c8.279 0 15-6.722 15-15V47.951Z"></path><path fill="url(#b)" d="M332.583 58.218c0-6.071-4.929-11-11-11H56.199c-4.415 0-8 3.585-8 8v150.378h284.384V58.218Z"></path><path fill="#e5f1ff" d="M214.248 223.641c0-3.312-2.689-6-6-6h-35.033c-3.311 0-6 2.688-6 6v1.765c0 3.312 2.689 6 6 6h35.033c3.311 0 6-2.688 6-6v-1.765Z"></path><path fill="#0bbc00" d="M209.141 120.865v7.858l-10.935 4.861a46.42 46.42 0 0 1-1.771 6.617l7.039 9.676-3.929 6.805-11.91-1.26a47.118 47.118 0 0 1-4.833 4.833l1.26 11.913-6.804 3.929-9.674-7.039a46.517 46.517 0 0 1-6.617 1.771l-4.86 10.936h-7.857l-4.86-10.937a46.55 46.55 0 0 1-6.617-1.77l-9.673 7.039-6.805-3.929 1.26-11.912a47.137 47.137 0 0 1-4.834-4.834l-11.909 1.26-3.928-6.805 7.037-9.675a46.564 46.564 0 0 1-1.77-6.618l-10.935-4.861v-7.858l10.934-4.86a46.727 46.727 0 0 1 1.771-6.62l-7.037-9.673 3.928-6.806 11.915 1.261a47.079 47.079 0 0 1 4.828-4.834l-1.26-11.912 6.805-3.929 9.674 7.04a46.578 46.578 0 0 1 6.616-1.772l4.86-10.936h7.857l4.86 10.936a46.507 46.507 0 0 1 6.616 1.772l9.675-7.04 6.804 3.929-1.26 11.912a47.19 47.19 0 0 1 4.829 4.834l11.914-1.261 3.929 6.806-7.037 9.673a46.59 46.59 0 0 1 1.77 6.62l10.934 4.86Zm-56.962-13.764c-9.77 0-17.691 7.922-17.691 17.693 0 9.772 7.921 17.693 17.691 17.693s17.69-7.921 17.69-17.693c0-9.771-7.92-17.693-17.69-17.693Z"></path><path fill="#cce6ff" d="m215.114 180.104 2.229-3.24a22.858 22.858 0 0 1-3.971-6.6l-3.751.687a1.324 1.324 0 0 1-.992-.214 1.326 1.326 0 0 1-.554-.852l-1.4-7.56a1.324 1.324 0 0 1 1.063-1.54l4.04-.74a22.911 22.911 0 0 1 1.778-7.362l-3.243-2.232a1.333 1.333 0 0 1-.554-.852 1.317 1.317 0 0 1 .213-.991l4.362-6.313c.065-.098.143-.185.231-.26a1.326 1.326 0 0 1 1.608-.076l3.404 2.343c1.987-1.703 4.08-3.012 6.457-3.985l-.711-3.81a1.309 1.309 0 0 1 1.057-1.542l7.572-1.375c.72-.13 1.412.345 1.546 1.067l.735 3.938c2.561.159 5.12.752 7.512 1.736l2.103-3.054a1.32 1.32 0 0 1 1.845-.337l6.334 4.362a1.33 1.33 0 0 1 .347 1.842l-2.157 3.142a23.104 23.104 0 0 1 4.197 6.657l3.455-.634a1.33 1.33 0 0 1 1.549 1.064l1.398 7.564a1.315 1.315 0 0 1-1.059 1.541l-3.577.649a22.884 22.884 0 0 1-1.816 7.739l2.805 1.932c.604.415.756 1.24.343 1.841l-4.349 6.321a1.327 1.327 0 0 1-1.843.336l-2.981-2.05c-2.053 1.709-4.291 3.138-6.806 4.118l.633 3.381a1.311 1.311 0 0 1-1.059 1.543l-7.564 1.378a1.336 1.336 0 0 1-1.547-1.065l-.685-3.681a22.966 22.966 0 0 1-7.624-1.905l-2.035 2.967a1.319 1.319 0 0 1-.85.551 1.32 1.32 0 0 1-.993-.213l-6.352-4.375a1.322 1.322 0 0 1-.343-1.841Zm14.439-10.474c3.555 2.455 8.327 2.231 11.604-.542a9.548 9.548 0 0 0 1.693-1.872c2.988-4.344 1.879-10.308-2.467-13.304-3.56-2.453-8.341-2.225-11.625.554a9.54 9.54 0 0 0-1.694 1.874 9.465 9.465 0 0 0-1.516 7.164 9.519 9.519 0 0 0 4.005 6.126Zm7.137-39.768a1.345 1.345 0 0 1-.178-.998l1.175-5.253a29.431 29.431 0 0 1-8.314-6.283l-4.421 2.79a1.327 1.327 0 0 1-1.828-.414l-5.332-8.384c-.39-.621-.183-1.443.409-1.828l4.725-2.987a29.106 29.106 0 0 1-1.489-10.163l-5.25-1.184a1.33 1.33 0 0 1-.832-.586 1.322 1.322 0 0 1-.177-1.001l2.162-9.669a1.328 1.328 0 0 1 1.583-.999l5.482 1.237a29.066 29.066 0 0 1 6.081-8.257l-2.851-4.498a1.32 1.32 0 0 1 .408-1.825l8.373-5.292a1.329 1.329 0 0 1 1.828.411l2.946 4.616a29.825 29.825 0 0 1 10.293-1.601l1.113-4.98a1.316 1.316 0 0 1 1.577-.997l9.692 2.183a1.331 1.331 0 0 1 1.01 1.582l-1.136 5.103a29.457 29.457 0 0 1 8.613 6.238l4.092-2.584a1.324 1.324 0 0 1 1.827.412l5.336 8.378c.191.297.251.656.177.998a1.323 1.323 0 0 1-.583.827l-4.226 2.674a29.222 29.222 0 0 1 1.638 10.625l4.597 1.039a1.331 1.331 0 0 1 1.009 1.584l-2.154 9.668a1.324 1.324 0 0 1-1.582.999l-4.852-1.09c-1.578 3.224-3.737 6.106-6.43 8.588l2.562 4.021c.187.3.254.66.175.999a1.278 1.278 0 0 1-.583.83l-8.375 5.296a1.333 1.333 0 0 1-1.831-.417l-2.756-4.335a29.312 29.312 0 0 1-10.505 1.446l-1.08 4.852c-.076.343-.279.64-.582.829a1.33 1.33 0 0 1-.999.172l-9.702-2.185a1.336 1.336 0 0 1-.835-.587Zm11.575-20.205a12.624 12.624 0 0 0 11.02-2.701 12.547 12.547 0 0 0 4.172-6.906c1.525-6.85-2.811-13.674-9.667-15.221a12.643 12.643 0 0 0-11.034 2.701 12.549 12.549 0 0 0-4.173 6.91c-1.525 6.843 2.821 13.671 9.682 15.217Z"></path><path fill="url(#c)" d="M155.744 243.542h67.681v36.893s-.121 11.277 18.354 19.599c-8.505 1.932-64.24 0-64.24 0v-.282c-.05.003-31.651 1.921-40.15 0 18.476-8.281 18.355-19.501 18.355-19.501v-36.709Z"></path><path fill="#cce6ff" d="M242.926 303.146c0-4.139-3.36-7.5-7.5-7.5h-91.684a7.504 7.504 0 0 0-7.5 7.5v2.208c0 4.139 3.361 7.5 7.5 7.5h91.684c4.14 0 7.5-3.361 7.5-7.5v-2.208Z"></path><path fill="#0084ff" d="M321.261 209.721h19.506c4.252 0 8.763-.222 12.265.585 8.486 1.954 15.111 6.222 19.682 12.106 2.425 3.123 4.53 6.791 5.84 10.995.588 1.89.966 3.863 1.343 5.966.922 5.144-.333 10.637-1.46 14.445-3.37 11.392-10.213 19.025-20.791 23.16-8.047 3.146-21.529 2.096-32.589 2.106v-.059l3.27-12.106c.594-1.983.85-4.078 1.811-5.673.899-1.491 2.235-2.738 3.738-3.626 2.28-1.348 6.101-1.112 9.753-1.111l3.154-.059c3.867-.698 6.77-2.581 8.526-5.38.753-1.2 1.308-2.669 1.694-4.211.703-2.805-.145-5.735-.993-7.662-3.698-8.403-12.068-6.983-23.711-6.959l-13.491 50.238c-1.917 6.385-2.405 14.569-7.534 17.779-2.446 1.531-6.523 1.287-10.571 1.287h-10.221l17.755-66.439 3.679-13.802c.907-3.038 1.332-6.025 3.037-8.188 1.061-1.345 2.738-2.473 4.556-3.041l1.752-.351Zm-45.087 22.575h27.215v.059l-2.92 10.995c-1.519 5.091-1.889 8.75-6.541 10.761-3.229 1.396-9.197.761-13.608.76h-3.445c-5.633.94-9.308 4.056-10.63 9.241-.549 2.153-.294 4.758.292 6.609 1.531 4.828 4.811 7.512 10.279 8.421 3.679.612 8.779-.966 11.155.878 2.104 1.633 1.806 4.01.993 6.725l-4.03 14.855c-4.808.055-10.239.354-14.308-.526-12.727-2.753-21.004-10.361-25.347-21.522-1.997-5.132-2.81-13.283-1.227-19.593.914-3.64 1.989-7.211 3.68-10.117 4.352-7.481 10.244-12.432 18.805-15.733 1.905-.734 4.055-1.124 6.249-1.52l3.388-.293Z"></path><path fill="#fff" d="m345.623 196.533.451.002.458.004.465.006.47.009.477.012.473.015.256.009.242.01.249.012.25.012.253.014.252.014.252.016.259.018.256.019.259.021.267.023.262.024.262.025.271.028.27.03.27.032.278.035.274.036.278.039.281.042.28.043.286.048.289.05.288.053.293.056.299.061.295.064.278.062.28.065.258.062.259.063.259.064.255.064.259.067.259.069.257.069.253.069.252.071.257.073.253.073.255.075.25.076.252.077.254.079.246.078.251.081.248.082.249.083.252.085.243.084.245.086.247.088.247.09.243.089.243.091.245.093.242.093.241.095.243.097.237.095.239.098.242.101.238.1.237.101.236.103.237.104.235.105.235.107.234.107.23.108.233.11.232.111.232.112.231.114.227.113.233.117.225.116.225.117.228.119.227.121.223.12.222.121.228.126.221.124.217.123.219.126.222.129.221.13.22.132.217.131.212.13.218.134.211.133.214.135.216.138.208.136.215.141.214.142.206.139.205.139.211.146.207.144.204.144.206.147.201.145.204.149.206.152.202.151.195.148.199.152.199.154.202.158.195.155.191.152.196.159.196.16.194.161.191.16.191.161.185.159.191.165.19.167.186.165.186.166.185.168.183.168.179.166.184.172.185.175.176.169.179.173.176.173.175.173.181.181.173.175.174.178.173.179.168.176.171.181.17.182.167.181.17.187.167.185.162.181.164.185.162.185.163.188.161.19.159.188.158.189.157.19.156.191.157.193.158.198.148.188.148.189.159.205.148.195.148.194.15.201.15.201.149.202.146.202.151.208.147.206.141.201.147.209.146.212.142.208.144.211.143.215.144.217.141.216.139.215.14.217.141.224.14.224.136.22.134.219.137.227.136.227.135.229.133.229.132.23.134.236.129.23.128.232.131.239.128.238.127.24.127.243.122.236.123.241.124.248.121.244.119.245.121.251.119.252.115.247.117.254.114.253.113.254.112.256.111.257.111.264.106.257.106.257.106.266.105.266.103.267.099.261.1.267.1.274.097.27.095.271.095.276.093.277.09.273.088.273.088.28.083.268.079.265.077.265.074.258.071.253.07.26.07.261.065.254.061.24.062.247.062.256.057.243.057.243.055.242.053.237.055.25.097.456.094.457.09.452.086.447.083.437.079.428.077.42.078.435.035.196.034.202.033.201.031.2.03.203.031.213.027.2.028.214.047.387.043.398.038.393.034.398.029.388.024.388.02.387.016.382.012.383.007.376.004.377v.37l-.003.365-.007.371-.01.359-.013.359-.017.365-.019.353-.022.348-.025.347-.027.347-.03.341-.033.342-.034.335-.037.335-.04.335-.041.323-.043.324-.045.323-.046.316-.049.317-.05.317-.051.305-.053.305-.054.303-.056.305-.057.298-.057.291-.06.292-.059.285-.059.279-.062.285-.064.284-.061.266-.063.271-.065.272-.065.265-.064.258-.065.258-.066.257-.064.244-.068.256-.128.475-.131.467-.128.449-.129.438-.101.34-.104.339-.104.333-.107.337-.111.341-.111.335-.111.329-.115.332-.117.332-.118.331-.121.33-.122.328-.124.327-.127.326-.128.326-.131.325-.132.323-.134.322-.136.32-.139.32-.142.323-.14.312-.144.317-.147.315-.148.314-.152.316-.15.307-.154.309-.16.314-.159.309-.158.301-.162.305-.167.307-.166.302-.172.307-.171.299-.17.294-.175.297-.18.3-.179.294-.18.291-.184.293-.185.29-.19.292-.19.288-.192.285-.192.283-.198.286-.199.282-.197.275-.203.28-.207.28-.207.276-.208.273-.209.27-.212.269-.218.273-.216.267-.216.263-.223.266-.223.262-.222.258-.226.258-.232.26-.23.254-.231.251-.237.254-.235.249-.24.249-.239.245-.242.243-.245.243-.245.24-.251.242-.248.234-.249.233-.256.234-.254.23-.258.229-.256.225-.262.226-.264.225-.263.219-.265.219-.267.216-.269.215-.27.212-.273.211-.276.21-.273.205-.275.203-.283.205-.278.199-.279.197-.286.198-.286.195-.283.19-.29.191-.29.188-.288.185-.295.185-.294.181-.293.179-.293.176-.301.177-.299.173-.298.17-.302.169-.306.169-.304.165-.304.162-.307.161-.308.158-.308.156-.311.155-.314.154-.311.149-.312.148-.318.148-.315.143-.318.143-.319.14-.318.138-.322.136-.322.135-.324.133-.322.129-.342.135-.305.117-.317.119-.315.114-.319.111-.318.108-.315.104-.319.101-.313.097-.314.094-.315.091-.314.088-.314.086-.313.082-.31.079-.312.077-.313.074-.312.073-.308.068-.312.068-.312.065-.306.062-.311.061-.307.057-.307.057-.309.054-.31.053-.307.05-.307.048-.308.047-.306.045-.308.044-.303.041-.305.041-.308.039-.305.037-.306.036-.307.034-.301.032-.304.032-.306.03-.303.029-.307.028-.302.026-.302.025-.305.025-.303.022-.304.022-.302.021-.299.02-.303.018-.306.018-.301.017-.299.016-.311.015-.594.027-.601.024-.599.021-.6.018-.598.015-.595.012-.596.01-.593.008-.592.005-.59.004-.59.001h-.586l-.584-.001-.583-.003-.579-.004-.579-.006-.575-.006-.571-.007-.573-.008-1.125-.018-1.116-.018-1.1-.02-1.083-.018-.236-.004-.055.232-.089.363-.092.373-.097.381-.099.382-.102.39-.107.394-.111.399-.117.408-.121.411-.123.404-.071.227-.067.214-.067.205-.07.215-.074.222-.073.215-.077.223-.079.222-.077.214-.081.223-.084.224-.087.23-.09.23-.089.224-.093.23-.095.231-.099.232-.099.231-.105.237-.107.239-.107.231-.112.239-.115.238-.121.245-.124.247-.124.239-.125.237-.132.244-.141.254-.138.243-.146.252-.147.245-.152.249-.157.25-.156.241-.169.256-.172.254-.176.253-.178.248-.18.245-.192.255-.194.249-.196.247-.208.253-.211.25-.215.248-.221.247-.225.244-.228.241-.24.245-.239.237-.25.24-.258.241-.25.226-.264.231-.28.237-.271.221-.279.221-.289.221-.284.21-.297.211-.306.211-.306.202-.295.189-.215.132-.204.123-.189.11-.197.112-.207.114-.2.106-.199.104-.184.093-.2.099-.21.099-.185.086-.221.1-.355.153-.376.153-.375.144-.372.135-.36.123-.36.116-.355.107-.345.099-.343.091-.341.086-.331.078-.325.072-.326.068-.318.061-.311.057-.307.052-.304.047-.296.044-.296.04-.291.036-.283.033-.281.03-.276.027-.269.024-.271.023-.269.02-.259.017-.259.016-.256.014-.247.012-.247.011-.248.009-.24.008-.252.007-.451.01-.455.007-.443.004-.429.001h-.422l-.412-.002-.771-.005-.743-.005-.346-.001-.35-.001h-11.09l-4.936.063-.423.006-.893.016-.924.018-.95.018-.494.008-.499.008-.505.006-.512.005-.521.003h-.525l-.531-.001-.539-.005-.534-.008-.284-.005-.276-.007-.279-.007-.275-.009-.281-.009-.285-.011-.283-.012-.283-.014-.286-.015-.292-.016-.289-.018-.202-.014h-.157l.003-.011-.226-.016-.297-.024-.295-.025-.296-.027-.302-.03-.304-.031-.303-.034-.306-.037-.305-.038-.31-.042-.313-.045-.313-.047-.316-.051-.321-.054-.32-.058-.323-.061-.33-.066-.313-.066-.394-.087-.387-.087-.385-.091-.379-.092-.381-.094-.379-.098-.376-.099-.377-.102-.378-.106-.374-.108-.372-.109-.37-.112-.37-.115-.37-.118-.366-.12-.366-.123-.366-.126-.364-.128-.359-.13-.361-.133-.359-.135-.357-.138-.359-.142-.353-.143-.35-.145-.353-.149-.351-.151-.348-.154-.347-.156-.345-.159-.344-.161-.34-.163-.341-.167-.339-.169-.336-.171-.337-.175-.335-.177-.33-.179-.33-.181-.328-.184-.327-.187-.327-.19-.321-.191-.319-.193-.32-.197-.318-.199-.319-.204-.31-.202-.311-.206-.311-.21-.308-.211-.309-.216-.302-.215-.3-.217-.299-.22-.299-.224-.296-.226-.292-.227-.292-.23-.291-.234-.286-.233-.285-.236-.285-.241-.283-.243-.276-.242-.275-.244-.274-.247-.272-.25-.272-.255-.267-.253-.264-.255-.266-.261-.259-.258-.258-.262-.256-.265-.254-.265-.254-.271-.248-.269-.247-.271-.244-.274-.241-.275-.241-.278-.238-.279-.237-.284-.232-.282-.228-.281-.229-.287-.228-.292-.223-.289-.219-.288-.218-.292-.217-.296-.217-.301-.211-.297-.207-.296-.207-.301-.205-.303-.203-.305-.199-.305-.198-.308-.193-.305-.193-.31-.191-.313-.189-.313-.185-.313-.182-.312-.182-.319-.179-.318-.177-.319-.174-.322-.171-.32-.167-.319-.168-.325-.166-.327-.163-.328-.161-.328-.157-.327-.155-.328-.154-.331-.152-.334-.15-.335-.146-.332-.143-.333-.143-.338-.14-.336-.139-.341-.137-.341-.131-.333-.078-.204-.074-.195-.073-.196-.071-.196-.071-.196-.072-.205-.067-.195-.072-.212-.124-.377-.127-.399-.124-.403-.117-.399-.112-.394-.11-.403-.108-.408-.102-.404-.098-.404-.095-.408-.09-.404-.088-.409-.086-.418-.081-.414-.077-.41-.074-.414-.071-.419-.067-.42-.064-.419-.061-.421-.057-.42-.054-.425-.051-.43-.047-.426-.044-.425-.04-.431-.038-.434-.033-.431-.03-.431-.026-.435-.024-.44-.019-.436-.016-.435-.012-.444-.008-.44-.005-.44-.001-.44.003-.449.007-.444.011-.444.015-.435.01-.242.01-.224.011-.215.012-.224.014-.233.014-.223.016-.224.017-.233.017-.223.019-.224.02-.224.021-.224.023-.232.023-.224.025-.232.027-.232.026-.215.029-.232.03-.232.03-.223.033-.232.034-.232.036-.232.035-.223.038-.231.04-.232.039-.223.042-.232.044-.232.044-.231.047-.232.05-.24.049-.231.049-.222.053-.232.054-.231.055-.231.056-.225.1-.395.097-.38.1-.387.104-.392.106-.395.108-.396.11-.396.114-.403.117-.404.121-.407.125-.414.128-.415.132-.414.136-.418.14-.421.146-.424.145-.413.082-.229.08-.218.08-.217.079-.209.082-.218.087-.224.082-.209.087-.217.09-.223.091-.224.091-.217.091-.215.097-.224.097-.223.099-.222.101-.223.104-.228.104-.222.103-.216.11-.23.112-.227.11-.221.117-.229.114-.219.118-.226.126-.236.124-.225.125-.225.129-.228.125-.218.138-.236.135-.227.137-.23.135-.223.139-.228.142-.23.135-.216.142-.226.144-.225.141-.218.145-.223.145-.219.146-.22.148-.22.147-.215.151-.219.152-.218.152-.215.153-.215.15-.209.156-.215.161-.218.154-.207.158-.21.163-.214.157-.204.162-.207.166-.211.16-.201.165-.205.169-.208.166-.201.171-.206.171-.203.169-.198.17-.197.172-.198.177-.201.177-.198.175-.195.177-.194.178-.193.181-.194.18-.191.179-.188.188-.195.184-.187.186-.189.187-.188.185-.182.187-.184.191-.184.191-.183.189-.179.194-.181.198-.183.194-.177.193-.174.197-.177.199-.175.2-.174.197-.17.203-.173.206-.174.198-.165.201-.165.209-.17.207-.167.203-.161.21-.165.214-.166.206-.158.209-.158.213-.16.212-.157.213-.156.213-.154.218-.156.218-.154.214-.149.22-.152.221-.15.213-.144.223-.149.224-.147.219-.142.223-.143.223-.142.227-.142.229-.142.223-.137.224-.135.228-.136.232-.137.229-.134.23-.133.231-.131.235-.133.23-.127.228-.125.24-.131.235-.126.233-.123.237-.124.237-.122.236-.121.239-.12.239-.119.241-.119.244-.118.239-.115.237-.112.243-.115.247-.114.243-.11.242-.11.249-.111.245-.107.245-.107.251-.107.246-.105.245-.102.251-.104.253-.103.25-.101.25-.1.251-.098.279-.108.305-.116.325-.118.325-.115.323-.109.314-.103.31-.098.31-.094.306-.091.3-.085.294-.081.292-.078.289-.075.285-.072.281-.068.274-.065.272-.063.269-.06.264-.058.264-.056.255-.054.247-.05.259-.052.474-.093.469-.089.453-.084.435-.079 1.022-.185 4.563-.394h23.267l.369-1.386.117-.396.055-.194.057-.206.06-.22.064-.239.065-.245.144-.548.154-.586.086-.322.09-.332.097-.347.104-.365.111-.38.113-.371.069-.219.065-.205.067-.206.072-.214.073-.214.075-.215.083-.234.082-.223.085-.225.094-.245.093-.233.099-.244.103-.242.104-.243.116-.261.116-.252.118-.25.127-.26.135-.27.138-.267.142-.265.151-.273.152-.267.165-.28.17-.278.169-.268.185-.283.189-.281.193-.277.2-.277.214-.287.207-.266.143-.18.149-.182.15-.18.135-.158.152-.174.145-.164.151-.166.152-.163.145-.152.158-.164.147-.149.148-.146.162-.158.159-.151.143-.134.156-.143.162-.146.159-.14.164-.142.157-.133.158-.132.159-.129.168-.135.166-.13.154-.119.162-.123.174-.129.169-.124.165-.118.169-.118.169-.117.166-.111.165-.11.18-.117.179-.114.166-.104.175-.107.181-.109.169-.099.17-.098.189-.108.178-.098.178-.096.185-.099.173-.09.193-.098.188-.093.175-.085.189-.09.183-.085.184-.084.197-.088.192-.083.193-.081.194-.08.189-.075.195-.076.195-.075.198-.073.204-.073.193-.067.2-.068.208-.068.831-.264 3.74-.749h20.801l.371-.001.365-.001.773-.006.797-.007.821-.007.425-.003.432-.002.439-.001h.443Zm-69.449 35.763-3.388.293-.41.074-.41.075-.408.075-.406.077-.404.079-.201.04-.2.041-.199.042-.199.043-.198.043-.198.044-.196.045-.196.047-.194.047-.194.049-.193.05-.191.051-.191.052-.189.054-.189.056-.187.057-.186.059-.184.06-.184.062-.182.064-.18.066-.18.068-.2.078-.199.078-.198.079-.197.079-.197.081-.195.08-.194.082-.194.082-.192.082-.192.083-.19.084-.19.085-.189.085-.187.086-.187.086-.186.087-.185.088-.184.088-.183.089-.183.09-.181.09-.18.091-.18.092-.178.092-.178.093-.177.093-.176.095-.175.095-.174.095-.173.096-.172.097-.172.098-.17.098-.17.099-.169.1-.168.101-.167.101-.166.101-.166.103-.164.103-.164.104-.163.105-.162.105-.161.106-.161.107-.159.107-.159.108-.158.109-.157.11-.156.11-.155.111-.155.112-.154.113-.153.113-.152.114-.151.115-.151.115-.15.117-.149.117-.148.117-.147.119-.147.119-.146.12-.145.121-.144.122-.144.122-.143.123-.142.124-.141.125-.14.125-.14.126-.139.127-.139.128-.137.129-.137.129-.136.13-.135.131-.135.132-.134.132-.133.134-.132.134-.132.135-.131.136-.13.136-.13.138-.129.138-.128.139-.128.14-.126.14-.127.142-.125.142-.125.144-.124.144-.123.144-.123.146-.122.147-.121.147-.121.148-.12.149-.119.15-.119.151-.118.152-.118.152-.116.154-.117.154-.115.155-.115.156-.114.157-.114.158-.113.158-.112.16-.112.16-.111.161-.111.163-.109.163-.11.164-.108.164-.109.166-.107.167-.107.167-.106.169-.106.169-.105.17-.105.172-.104.172-.103.173-.103.174-.102.175-.079.136-.078.138-.077.138-.076.14-.075.14-.075.142-.074.142-.072.143-.072.144-.071.145-.071.146-.069.146-.069.148-.068.148-.067.149-.067.149-.066.151-.065.151-.064.152-.064.153-.063.153-.062.154-.062.155-.061.155-.06.156-.059.157-.059.157-.059.158-.058.158-.057.159-.112.32-.111.322-.108.324-.106.326-.104.327-.102.33-.1.331-.098.332-.097.334-.095.335-.094.337-.092.337-.091.339-.089.339-.088.34-.088.34-.086.341-.036.149-.036.148-.035.15-.034.15-.033.151-.033.151-.031.152-.031.153-.03.153-.028.154-.029.154-.027.154-.026.156-.026.155-.025.157-.023.156-.024.157-.022.158-.021.158-.021.158-.02.159-.019.159-.018.16-.018.16-.016.16-.016.16-.015.161-.014.162-.014.161-.013.162-.012.162-.011.162-.01.162-.01.163-.009.163-.008.163-.007.163-.007.164-.011.327-.008.327-.005.328-.003.329.001.328.003.329.007.328.009.328.012.328.014.327.017.327.02.327.023.325.025.325.028.323.03.323.033.322.036.32.037.318.041.317.043.316.045.314.047.312.05.31.052.307.055.306.057.303.059.301.061.299.063.295.066.293.068.29.069.288.072.284.074.281.076.277.078.274.08.271.081.267.084.263.085.259.044.128.044.128.044.126.045.125.045.124.046.123.046.122.047.121.102.261.104.259.106.259.107.257.108.255.11.255.111.253.112.251.114.251.116.249.117.248.119.246.119.245.122.244.123.242.124.241.126.24.127.238.129.237.13.235.131.234.134.233.134.232.136.23.138.228.139.227.14.226.142.224.144.223.145.222.146.22.148.219.149.217.151.216.153.215.153.213.156.211.157.211.158.208.16.208.161.205.163.205.164.203.166.201.168.2.168.199.171.197.172.195.173.194.175.193.176.191.178.19.18.188.181.187.182.185.184.183.186.183.187.18.189.179.19.178.191.176.194.174.194.173.196.172.198.17.2.168.2.167.203.165.204.164.205.162.207.161.209.159.21.157.212.156.213.154.215.153.216.151.218.15.219.148.221.146.223.145.224.143.225.142.228.14.228.138.231.137.232.135.233.133.235.132.237.13.238.129.24.127.241.125.243.124.245.122.246.12.248.119.249.117.251.115.252.114.254.112.256.11.257.109.259.107.26.105.262.104.264.102.265.1.267.098.268.097.27.095.272.094.273.091.275.09.276.088.278.087.28.084.281.083.283.082.284.079.286.078.288.076.289.074.291.073.293.07.294.069.296.068.298.065.191.04.194.039.196.037.197.036.199.033.201.033.203.03.204.03.206.027.208.027.209.025.211.023.212.022.214.021.215.02.216.018.217.017.219.017.22.014.221.014.222.013.223.011.224.011.225.01.226.008.227.008.228.007.228.006.229.006.23.004.462.007.463.004.466.001h.467l.468-.003.468-.004.469-.006.47-.007.468-.008.935-.018.929-.017.92-.017.456-.007.452-.006 4.03-14.855.075-.253.071-.252.034-.125.033-.124.033-.124.031-.123.03-.123.029-.122.028-.122.027-.121.025-.12.024-.12.022-.119.022-.119.019-.117.019-.118.017-.116.015-.116.013-.115.012-.115.01-.113.009-.114.007-.112.004-.112.003-.11.001-.111-.001-.109-.002-.109-.005-.107-.008-.107-.009-.107-.011-.105-.014-.105-.016-.104-.018-.103-.02-.102-.023-.101-.026-.101-.028-.099-.03-.099-.033-.098-.035-.097-.039-.096-.041-.095-.043-.094-.047-.093-.049-.093-.052-.091-.027-.045-.028-.046-.029-.044-.029-.045-.03-.044-.031-.044-.032-.044-.032-.044-.033-.043-.034-.043-.035-.043-.036-.043-.036-.042-.037-.042-.038-.042-.039-.042-.039-.041-.041-.041-.041-.041-.042-.041-.043-.04-.044-.04-.044-.04-.046-.039-.046-.039-.047-.039-.048-.039-.049-.038-.056-.043-.057-.041-.058-.041-.059-.038-.06-.038-.061-.037-.062-.035-.063-.034-.064-.034-.065-.032-.065-.031-.066-.029-.068-.029-.068-.028-.069-.027-.069-.025-.071-.025-.071-.024-.072-.023-.073-.022-.074-.02-.074-.02-.075-.019-.076-.019-.077-.017-.077-.016-.078-.016-.079-.015-.079-.014-.08-.013-.08-.013-.082-.011-.082-.011-.082-.011-.083-.009-.084-.009-.169-.016-.171-.013-.173-.01-.175-.009-.177-.006-.179-.004-.181-.002-.182-.001-.184.002-.185.003-.187.004-.188.005-.189.007-.19.008-.19.009-.192.009-.386.021-.388.022-.39.023-.39.022-.391.02-.195.01-.195.009-.194.007-.194.007-.193.006-.193.004-.192.003-.191.001h-.19l-.189-.002-.188-.004-.187-.006-.185-.008-.184-.011-.182-.013-.181-.015-.179-.019-.089-.01-.089-.011-.088-.011-.087-.013-.087-.013-.087-.014-.128-.021-.126-.023-.127-.023-.125-.023-.125-.024-.123-.025-.123-.026-.122-.026-.122-.027-.12-.027-.12-.029-.119-.029-.118-.029-.118-.03-.117-.031-.115-.032-.116-.032-.114-.033-.113-.033-.113-.034-.112-.035-.111-.036-.111-.036-.11-.037-.108-.037-.109-.038-.107-.039-.107-.04-.105-.04-.105-.041-.105-.042-.103-.042-.103-.043-.102-.044-.101-.044-.101-.045-.1-.046-.099-.046-.098-.047-.097-.048-.097-.049-.096-.049-.095-.05-.095-.05-.093-.052-.093-.052-.093-.052-.091-.054-.091-.054-.09-.055-.089-.055-.089-.056-.088-.057-.087-.058-.086-.058-.086-.059-.085-.06-.084-.06-.083-.061-.083-.062-.082-.063-.081-.063-.081-.064-.079-.065-.08-.065-.078-.066-.078-.067-.077-.068-.076-.068-.075-.069-.075-.07-.074-.07-.073-.072-.073-.071-.072-.073-.071-.074-.071-.074-.07-.075-.069-.075-.068-.076-.068-.077-.067-.078-.066-.079-.066-.079-.065-.08-.064-.081-.064-.081-.063-.083-.062-.083-.061-.083-.061-.085-.06-.085-.059-.086-.059-.087-.058-.087-.058-.088-.056-.089-.056-.09-.056-.09-.054-.092-.054-.092-.054-.092-.052-.094-.052-.094-.051-.095-.051-.096-.05-.096-.049-.098-.049-.098-.048-.099-.047-.099-.047-.1-.046-.102-.045-.101-.045-.103-.044-.104-.043-.104-.043-.105-.042-.106-.041-.106-.041-.107-.04-.109-.039-.108-.039-.11-.038-.11-.038-.112-.036-.112-.037-.112-.027-.088-.027-.088-.026-.09-.026-.09-.025-.091-.025-.093-.024-.093-.023-.094-.023-.096-.023-.096-.021-.096-.022-.098-.02-.098-.02-.1-.019-.099-.019-.101-.018-.101-.017-.102-.017-.103-.016-.103-.015-.103-.015-.104-.014-.105-.013-.105-.012-.106-.012-.106-.01-.106-.01-.107-.01-.107-.008-.107-.008-.108-.007-.107-.006-.108-.005-.109-.004-.108-.003-.109-.003-.108-.002-.109v-.218l.001-.109.002-.109.003-.108.004-.109.004-.109.006-.108.007-.108.008-.108.009-.108.009-.108.011-.107.012-.107.013-.107.014-.106.015-.106.016-.106.017-.105.019-.105.019-.104.021-.104.021-.103.023-.102.024-.102.025-.101.032-.121.032-.121.033-.119.034-.119.035-.118.036-.118.036-.116.038-.116.038-.115.039-.114.04-.114.041-.113.041-.112.043-.111.043-.111.045-.109.045-.109.045-.108.047-.108.048-.107.048-.106.049-.105.05-.104.051-.104.052-.103.053-.102.053-.101.054-.101.055-.099.056-.099.057-.099.058-.097.058-.097.059-.096.06-.095.061-.094.062-.094.062-.093.064-.092.064-.092.065-.09.065-.09.067-.089.067-.088.069-.088.069-.086.07-.086.07-.086.072-.084.072-.084.073-.083.074-.082.074-.081.076-.081.076-.079.077-.079.078-.079.079-.077.079-.077.08-.076.081-.075.082-.074.083-.074.083-.072.084-.072.085-.072.086-.07.087-.07.087-.069.088-.068.089-.067.09-.067.09-.066.092-.065.092-.064.093-.063.093-.063.094-.062.096-.061.096-.06.096-.06.098-.058.098-.058.099-.058.1-.056.1-.056.101-.054.102-.055.103-.053.104-.052.104-.052.105-.051.106-.05.107-.049.107-.049.108-.048.109-.047.11-.046.11-.045.111-.045.112-.044.113-.043.113-.042.114-.041.115-.041.116-.04.116-.039.117-.038.118-.038.118-.037.12-.036.12-.035.121-.034.121-.034.122-.032.123-.032.124-.031.124-.031.126-.029.125-.029.127-.028.127-.027.128-.027.129-.025.13-.025.13-.024.131-.023.132-.023h3.445l.208.001.21.001.427.005.433.008.441.01.446.012.452.013.916.028.463.014.464.013.466.012.467.011.466.008.465.006.232.002.231.001h.23l.23-.001.229-.002.228-.003.227-.005.226-.005.224-.007.224-.008.221-.009.22-.011.219-.012.217-.014.215-.016.213-.017.21-.019.209-.021.207-.023.204-.024.202-.027.199-.029.196-.031.194-.033.191-.035.188-.037.093-.02.092-.02.092-.021.09-.022.09-.022.089-.022.088-.024.087-.024.087-.025.085-.025.085-.026.084-.027.083-.027.082-.028.081-.029.08-.029.079-.03.078-.031.077-.032.076-.032.108-.048.107-.048.105-.048.104-.049.102-.05.101-.051.099-.051.098-.051.096-.053.095-.052.093-.054.092-.054.091-.055.089-.055.088-.056.086-.056.086-.057.084-.058.082-.058.082-.059.08-.059.079-.06.077-.06.077-.062.075-.061.074-.063.073-.063.072-.063.071-.064.069-.065.069-.065.067-.066.066-.066.065-.067.065-.068.063-.068.062-.069.061-.069.06-.07.059-.07.059-.072.057-.071.056-.072.056-.073.055-.074.053-.074.053-.074.052-.075.052-.076.05-.076.05-.077.048-.077.049-.078.047-.079.047-.079.046-.08.045-.08.044-.081.044-.081.043-.082.043-.082.042-.084.041-.083.041-.084.08-.17.078-.173.075-.174.074-.177.072-.179.07-.182.069-.183.067-.186.066-.188.065-.19.064-.193.063-.194.062-.197.061-.199.061-.201.06-.204.06-.205.06-.208.12-.422.12-.43.123-.44.125-.447.129-.456.133-.465.069-.236.07-.237 2.92-10.995v-.059h-27.215Zm68.616-22.602-.402.002-.403.003-.807.007-.807.007-.804.006-.4.001-.4.001h-19.506l-1.752.351-.086.027-.084.028-.085.028-.084.03-.085.03-.084.031-.083.032-.084.032-.083.034-.082.034-.083.035-.082.035-.082.036-.081.037-.081.038-.081.038-.08.039-.08.04-.08.041-.079.041-.079.042-.078.042-.078.043-.077.044-.077.044-.076.045-.076.046-.076.046-.075.047-.074.047-.074.048-.073.049-.073.049-.072.05-.072.05-.071.051-.07.051-.07.052-.069.052-.069.053-.068.054-.067.054-.067.054-.066.055-.065.055-.064.056-.064.057-.063.056-.063.057-.061.058-.061.058-.06.059-.06.059-.058.059-.058.059-.057.061-.056.06-.056.061-.054.061-.054.062-.053.061-.052.063-.051.062-.05.063-.079.102-.077.103-.075.105-.074.105-.072.107-.07.108-.069.108-.067.11-.065.111-.064.112-.063.113-.061.115-.059.115-.059.116-.056.117-.056.118-.055.119-.053.119-.052.121-.051.122-.05.122-.049.123-.048.124-.047.125-.046.126-.045.126-.045.127-.043.128-.043.129-.042.129-.042.13-.041.131-.08.263-.078.266-.076.267-.075.27-.074.272-.073.274-.146.553-.146.558-.074.281-.076.283-.077.282-.079.284-.081.284-.084.285-3.679 13.802-17.755 66.439h10.221l.379.001.38.001.757.005.753.005.374.002h.373l.369-.001.368-.003.364-.005.362-.008.179-.006.179-.005.177-.007.177-.008.175-.008.175-.01.173-.011.172-.011.171-.013.17-.014.169-.015.167-.017.166-.017.165-.019.163-.021.162-.022.16-.023.159-.025.157-.027.156-.028.154-.03.152-.031.151-.034.148-.035.148-.037.145-.039.143-.041.142-.042.14-.045.137-.047.136-.05.133-.051.132-.053.129-.056.064-.029.063-.029.063-.03.063-.031.061-.031.061-.032.061-.032.06-.033.059-.034.059-.034.058-.035.058-.036.119-.076.118-.078.116-.08.114-.081.113-.083.111-.085.11-.087.108-.088.106-.09.105-.092.103-.093.102-.095.1-.097.099-.098.098-.099.096-.102.094-.102.093-.104.092-.106.09-.107.089-.109.088-.109.086-.112.085-.112.084-.114.083-.116.081-.117.08-.118.079-.119.077-.12.077-.122.075-.123.074-.124.073-.126.072-.126.071-.128.07-.129.069-.13.067-.131.067-.132.065-.133.065-.134.064-.135.062-.136.062-.137.061-.138.06-.139.059-.14.058-.141.058-.142.056-.142.056-.144.055-.144.054-.145.053-.146.053-.146.052-.147.051-.148.051-.149.049-.149.05-.15.048-.151.048-.151.047-.152.093-.305.091-.308.088-.309.087-.312.085-.313.083-.315.082-.316.08-.317.079-.318.078-.32.077-.32.076-.321.15-.642.149-.644.148-.642.149-.641.075-.32.076-.318.076-.317.077-.317.078-.314.079-.313.081-.312.082-.309.083-.308.085-.305.087-.303.089-.301 13.491-50.238.543-.002.539-.004.533-.006.529-.006.524-.008.519-.009 1.023-.018 1.002-.018.494-.008.489-.008.483-.007.478-.005.473-.004.467-.002h.463l.457.003.451.005.224.003.222.005.222.005.219.006.219.006.217.008.215.008.214.01.213.01.212.011.21.013.208.013.208.015.205.016.205.016.203.018.201.02.201.02.198.022.198.023.196.025.194.025.193.028.192.028.19.031.189.031.187.033.186.035.184.037.183.038.181.039.18.042.179.043.177.045.175.047.174.048.173.051.171.052.169.054.168.057.167.058.164.06.164.062.162.065.16.066.159.069.157.071.156.073.154.075.153.078.151.08.15.082.148.084.146.087.145.09.144.092.141.094.071.048.069.049.07.05.069.05.069.051.068.051.068.052.067.053.068.053.066.054.067.055.065.055.066.057.065.056.065.058.064.058.064.059.063.059.064.061.062.061.063.061.061.063.062.063.061.064.061.065.06.065.06.066.059.067.059.067.059.069.058.069.058.07.057.07.057.072.057.072.056.073.056.073.055.075.055.075.054.076.054.077.054.078.053.078.053.079.053.08.052.081.051.082.051.082.051.084.05.084.05.085.05.086.049.087.049.087.048.089.048.089.047.09.047.091.046.092.047.092.045.094.046.095.044.095.045.096.044.097.043.098.08.184.079.189.079.195.077.2.077.205.038.104.037.106.037.106.037.108.036.109.035.11.035.111.034.112.034.113.033.114.032.115.032.116.03.117.03.118.029.118.029.12.027.12.026.121.026.122.024.122.023.123.022.124.021.124.02.125.019.126.017.126.016.127.015.127.013.128.012.128.011.129.009.129.008.129.006.13.005.13.003.131.001.13v.131l-.002.132-.004.131-.006.132-.007.131-.009.132-.011.132-.013.132-.015.132-.017.133-.019.132-.021.132-.023.132-.025.132-.027.132-.03.131-.032.132-.037.144-.037.144-.039.143-.04.143-.04.143-.042.141-.043.141-.044.141-.044.139-.046.139-.047.138-.048.138-.049.136-.05.135-.051.135-.052.134-.053.132-.055.132-.055.13-.057.13-.057.128-.059.127-.06.126-.061.125-.062.123-.063.122-.064.12-.065.12-.067.117-.068.117-.069.114-.07.114-.083.13-.085.129-.086.128-.088.127-.09.125-.092.124-.093.122-.095.121-.096.12-.098.118-.1.117-.101.115-.103.114-.105.113-.106.111-.108.109-.11.109-.111.106-.113.106-.114.104-.116.102-.117.101-.119.099-.121.098-.122.097-.124.095-.125.093-.127.092-.129.091-.13.089-.131.087-.134.086-.134.084-.137.083-.137.081-.14.08-.141.078-.142.077-.144.075-.145.073-.147.072-.149.07-.15.069-.151.067-.153.065-.154.064-.156.062-.158.06-.159.059-.16.058-.162.055-.163.054-.165.052-.166.051-.168.049-.169.047-.17.046-.172.044-.174.042-.175.04-.176.039-.178.037-.179.036-.18.033-3.154.059-.343-.001-.343-.002-.688-.005-.687-.005-.342-.002-.341-.001h-.339l-.338.002-.335.004-.333.006-.331.008-.164.006-.163.006-.162.007-.162.008-.16.009-.16.01-.158.01-.158.012-.156.013-.156.014-.154.015-.153.017-.151.017-.151.019-.149.02-.148.022-.146.023-.145.024-.144.026-.142.027-.14.029-.139.031-.137.032-.135.034-.134.035-.132.038-.131.039-.128.041-.127.043-.124.045-.123.047-.121.049-.118.051-.117.053-.115.056-.112.057-.055.03-.055.03-.055.031-.053.031-.141.084-.139.087-.138.088-.138.091-.136.092-.134.095-.134.096-.132.099-.131.1-.129.102-.128.104-.126.106-.125.108-.123.11-.122.111-.12.114-.118.115-.116.117-.114.118-.113.121-.11.121-.109.124-.106.125-.104.127-.102.129-.1.13-.098.131-.095.133-.093.135-.09.136-.089.138-.085.139-.045.075-.043.076-.043.076-.041.078-.041.078-.04.078-.039.079-.038.08-.037.081-.036.081-.036.082-.034.082-.034.083-.034.083-.032.084-.032.084-.031.085-.031.086-.059.172-.058.174-.055.176-.053.177-.052.179-.05.18-.049.182-.048.182-.047.184-.046.185-.046.185-.182.747-.093.376-.048.188-.049.187-.05.188-.051.187-.053.187-.055.186-3.27 12.106v.059h.52l.524.002.526.003.53.004.533.005.535.007 1.078.015 1.086.017 1.093.018 1.098.02 1.103.018 1.106.017.553.008.553.007.554.006.553.005.553.004.552.003.551.001h.55l.55-.001.548-.003.546-.006.545-.007.543-.009.541-.011.539-.013.536-.016.534-.019.531-.021.528-.024.263-.013.262-.014.262-.014.26-.016.26-.016.258-.017.258-.017.257-.019.256-.019.255-.02.254-.021.252-.023.252-.022.251-.024.25-.025.248-.026.248-.026.246-.028.245-.029.244-.029.243-.031.241-.032.24-.033.239-.033.238-.035.236-.036.235-.038.233-.038.232-.039.231-.041.229-.042.228-.043.226-.044.224-.045.224-.047.221-.048.22-.049.219-.05.216-.052.215-.053.214-.054.212-.056.21-.057.208-.059.206-.059.205-.062.203-.062.201-.064.199-.066.198-.067.195-.068.193-.07.192-.072.19-.073.247-.097.246-.099.244-.1.243-.102.242-.102.241-.104.239-.106.237-.106.237-.108.235-.109.233-.11.232-.112.231-.113.23-.114.228-.116.227-.117.225-.118.224-.12.223-.12.222-.122.22-.124.218-.124.218-.126.216-.128.214-.128.214-.13.212-.131.21-.132.209-.134.208-.135.207-.137.205-.137.204-.139.202-.14.202-.142.199-.143.199-.144.197-.145.196-.147.194-.148.194-.15.191-.151.191-.152.189-.153.188-.155.186-.156.185-.157.184-.158.183-.16.181-.162.18-.162.178-.164.177-.165.176-.167.175-.168.173-.169.172-.17.17-.172.169-.173.168-.175.167-.175.165-.178.164-.178.162-.18.162-.181.16-.182.158-.184.158-.185.156-.187.154-.187.154-.189.152-.191.15-.192.15-.193.148-.194.147-.196.145-.197.144-.198.143-.2.142-.201.14-.203.139-.203.138-.206.136-.206.135-.208.134-.209.132-.211.131-.211.13-.214.128-.214.128-.216.126-.217.124-.219.123-.22.122-.221.121-.223.12-.224.118-.225.117-.227.115-.228.114-.229.113-.231.112-.232.11-.234.109-.235.108-.236.107-.237.105-.239.104-.24.103-.242.101-.243.1-.245.099-.245.097-.247.096-.249.095-.25.094-.251.092-.252.092-.254.089-.256.089-.256.087-.258.086-.26.085-.261.083-.262.082-.263.081-.265.08-.267.106-.362.106-.371.106-.381.106-.389.053-.198.052-.2.052-.201.051-.204.051-.206.051-.208.05-.209.049-.211.049-.213.048-.215.047-.216.047-.218.045-.219.045-.221.044-.222.042-.224.042-.225.04-.226.04-.228.038-.228.036-.23.036-.231.034-.232.032-.234.032-.234.029-.235.028-.236.026-.237.025-.237.022-.238.021-.24.02-.239.017-.24.015-.241.013-.242.011-.241.009-.243.007-.242.004-.243.003-.244-.001-.243-.002-.244-.005-.243-.008-.244-.01-.244-.012-.244-.016-.244-.018-.244-.02-.243-.024-.244-.027-.243-.029-.243-.016-.122-.016-.121-.018-.121-.018-.121-.019-.121-.019-.121-.021-.121-.021-.12-.071-.393-.071-.39-.071-.387-.073-.384-.074-.381-.075-.378-.078-.376-.079-.374-.041-.186-.041-.185-.042-.184-.043-.184-.044-.184-.044-.182-.045-.182-.046-.182-.047-.181-.048-.181-.049-.18-.05-.179-.051-.179-.052-.178-.054-.178-.054-.178-.062-.196-.063-.196-.065-.195-.065-.195-.067-.193-.067-.193-.069-.192-.07-.191-.071-.191-.072-.189-.073-.189-.074-.188-.075-.187-.076-.187-.077-.185-.078-.185-.079-.184-.08-.184-.082-.182-.082-.182-.083-.181-.084-.18-.084-.179-.086-.179-.087-.178-.087-.177-.089-.176-.089-.175-.09-.175-.091-.174-.092-.173-.093-.172-.094-.171-.094-.171-.095-.17-.096-.169-.097-.168-.097-.168-.098-.166-.099-.166-.1-.165-.1-.165-.101-.163-.102-.163-.103-.162-.103-.161-.103-.16-.105-.16-.105-.158-.106-.158-.106-.158-.107-.156-.108-.155-.108-.155-.109-.154-.109-.153-.11-.153-.11-.151-.111-.151-.112-.15-.112-.149-.112-.148-.113-.148-.113-.147-.108-.137-.108-.137-.109-.137-.11-.136-.11-.135-.112-.135-.112-.134-.112-.133-.114-.133-.114-.132-.115-.132-.116-.131-.116-.13-.118-.13-.118-.129-.118-.128-.12-.128-.12-.127-.121-.127-.122-.126-.122-.125-.123-.125-.124-.124-.125-.124-.125-.122-.126-.123-.127-.121-.128-.121-.128-.12-.129-.12-.13-.119-.131-.118-.131-.118-.132-.117-.133-.116-.133-.116-.134-.115-.135-.114-.136-.113-.136-.113-.137-.113-.138-.111-.139-.111-.139-.111-.14-.109-.141-.109-.142-.108-.142-.108-.143-.107-.143-.106-.145-.105-.145-.105-.146-.104-.146-.104-.148-.102-.148-.102-.149-.102-.149-.1-.15-.1-.151-.099-.152-.099-.152-.097-.153-.097-.154-.097-.154-.095-.156-.095-.156-.094-.156-.094-.158-.092-.158-.092-.159-.092-.159-.09-.16-.09-.161-.089-.162-.088-.162-.088-.163-.086-.164-.086-.164-.086-.166-.084-.166-.084-.166-.083-.168-.082-.168-.082-.168-.081-.17-.08-.17-.079-.171-.078-.171-.078-.172-.077-.173-.076-.174-.076-.174-.074-.175-.074-.176-.073-.177-.072-.177-.072-.178-.071-.178-.07-.179-.069-.18-.068-.181-.068-.181-.066-.182-.066-.183-.066-.184-.064-.184-.063-.184-.063-.186-.062-.186-.061-.187-.061-.188-.059-.188-.059-.189-.058-.189-.057-.191-.056-.191-.055-.191-.055-.193-.054-.193-.053-.194-.052-.194-.051-.195-.051-.196-.049-.197-.049-.197-.048-.198-.047-.198-.046-.165-.037-.166-.036-.168-.034-.169-.033-.171-.031-.172-.03-.173-.028-.174-.028-.176-.026-.177-.025-.178-.023-.179-.023-.18-.021-.182-.02-.182-.019-.184-.018-.184-.017-.186-.015-.187-.015-.187-.014-.188-.013-.19-.012-.19-.011-.191-.011-.191-.009-.193-.009-.193-.008-.194-.007-.389-.012-.392-.01-.395-.007-.396-.006-.398-.003-.399-.002h-.401l-.402.001Z"></path><defs><linearGradient id="a" x2="1" gradientTransform="rotate(90 -51.586 90.024) scale(269.141)" gradientUnits="userSpaceOnUse"><stop offset="0" stop-color="#cce6ff"></stop><stop offset="1" stop-color="#1d98ff"></stop></linearGradient><linearGradient id="b" x2="1" gradientTransform="rotate(90 -39.97 112.483) scale(172.718)" gradientUnits="userSpaceOnUse"><stop offset="0" stop-color="#fff"></stop><stop offset="1" stop-color="#a3d3ff"></stop></linearGradient><linearGradient id="c" x2="1" gradientTransform="rotate(-90 236.253 63.853) scale(67.6205)" gradientUnits="userSpaceOnUse"><stop offset="0" stop-color="#cce6ff"></stop><stop offset="1" stop-color="#1d98ff"></stop></linearGradient></defs></svg>